# xmcd
# 
# Track frame offsets:
#     150
#     35895
#     63616
#     93993
#     128021
#     174369
#     194840
# 
# Disc length: 3096
# 
# Revision: 1
# Processed by: cddbd v1.5.2PL0 Copyright (c) Steve Scherf et al.
# Submitted via: fre:ac v1.0.31
# 
DISCID=640c1607
DTITLE=Eric Watson Trio - Jaded Angels
DYEAR=2006
DGENRE=Jazz
TTITLE0=Jaded Angels
TTITLE1=Ghosts On The Wall
TTITLE2=Fallen Angels
TTITLE3=Ice Lady
TTITLE4=Dice In The Sky
TTITLE5=Consolation
TTITLE6=House Of Mirrors
EXTD=YEAR: 2006
EXTT0=
EXTT1=
EXTT2=
EXTT3=
EXTT4=
EXTT5=
EXTT6=
PLAYORDER=
